<svg xmlns="http://www.w3.org/2000/svg" width="35.225" height="35.221" viewBox="0 0 35.225 35.221">
  <path id="Icon_awesome-linkedin-in" data-name="Icon awesome-linkedin-in" d="M7.885,35.221H.582V11.706h7.3ZM4.229,8.5A4.249,4.249,0,1,1,8.459,4.23,4.265,4.265,0,0,1,4.229,8.5ZM35.217,35.221H27.93V23.774c0-2.728-.055-6.227-3.8-6.227-3.8,0-4.379,2.964-4.379,6.03V35.221H12.459V11.706h7v3.208h.1a7.674,7.674,0,0,1,6.91-3.8c7.391,0,8.75,4.867,8.75,11.188V35.221Z" transform="translate(0 -0.001)" fill="#fff"/>
</svg>
