<svg xmlns="http://www.w3.org/2000/svg" width="51.439" height="51.434" viewBox="0 0 51.439 51.434">
  <path id="Icon_awesome-linkedin-in" data-name="Icon awesome-linkedin-in" d="M11.514,51.435H.85V17.095H11.514ZM6.176,12.411a6.205,6.205,0,1,1,6.176-6.234A6.228,6.228,0,0,1,6.176,12.411ZM51.428,51.435H40.786V34.718c0-3.984-.08-9.093-5.545-9.093-5.545,0-6.394,4.328-6.394,8.806v17H18.194V17.095H28.423v4.684h.149a11.206,11.206,0,0,1,10.09-5.545c10.793,0,12.777,7.107,12.777,16.338V51.435Z" transform="translate(0 -0.001)" fill="#ecc703"/>
</svg>
