<svg xmlns="http://www.w3.org/2000/svg" width="35.735" height="35.731" viewBox="0 0 35.735 35.731">
  <g id="Group_7500" data-name="Group 7500" transform="translate(-1370.766 -1873.833)">
    <path id="Icon_awesome-linkedin-in" data-name="Icon awesome-linkedin-in" d="M8,35.732H.59V11.876H8ZM4.291,8.622A4.311,4.311,0,1,1,8.581,4.291,4.327,4.327,0,0,1,4.291,8.622Zm31.436,27.11H28.334V24.119c0-2.768-.056-6.317-3.852-6.317-3.852,0-4.442,3.007-4.442,6.117V35.732h-7.4V11.876h7.105V15.13h.1a7.785,7.785,0,0,1,7.01-3.852c7.5,0,8.876,4.937,8.876,11.35v13.1Z" transform="translate(1370.765 1873.833)" fill="#338287"/>
  </g>
</svg>
