<svg xmlns="http://www.w3.org/2000/svg" width="40.839" height="33.166" viewBox="0 0 40.839 33.166">
  <path id="Icon_awesome-twitter" data-name="Icon awesome-twitter" d="M36.642,11.646c.026.363.026.726.026,1.088,0,11.064-8.422,23.812-23.814,23.812A23.655,23.655,0,0,1,0,32.79a17.316,17.316,0,0,0,2.021.1,16.764,16.764,0,0,0,10.391-3.576,8.385,8.385,0,0,1-7.826-5.8,10.556,10.556,0,0,0,1.581.13,8.853,8.853,0,0,0,2.2-.285,8.371,8.371,0,0,1-6.712-8.214v-.1A8.43,8.43,0,0,0,5.442,16.1,8.381,8.381,0,0,1,2.85,4.909a23.792,23.792,0,0,0,17.258,8.758A9.447,9.447,0,0,1,19.9,11.75,8.378,8.378,0,0,1,34.387,6.024,16.48,16.48,0,0,0,39.7,4a8.347,8.347,0,0,1-3.68,4.612,16.781,16.781,0,0,0,4.82-1.3,17.991,17.991,0,0,1-4.2,4.327Z" transform="translate(0 -3.381)" fill="#338287"/>
</svg>
