<svg xmlns="http://www.w3.org/2000/svg" width="58.788" height="47.742" viewBox="0 0 58.788 47.742">
  <path id="Icon_awesome-twitter" data-name="Icon awesome-twitter" d="M52.745,15.279c.037.522.037,1.044.037,1.567,0,15.926-12.123,34.277-34.281,34.277A34.05,34.05,0,0,1,0,45.715a24.926,24.926,0,0,0,2.91.149,24.131,24.131,0,0,0,14.958-5.147A12.07,12.07,0,0,1,6.6,32.362a15.2,15.2,0,0,0,2.276.186,12.744,12.744,0,0,0,3.171-.41A12.049,12.049,0,0,1,2.387,20.314v-.149a12.135,12.135,0,0,0,5.446,1.529A12.065,12.065,0,0,1,4.1,5.581,34.249,34.249,0,0,0,28.946,18.188a13.6,13.6,0,0,1-.3-2.76A12.06,12.06,0,0,1,49.5,7.185a23.723,23.723,0,0,0,7.647-2.909,12.015,12.015,0,0,1-5.3,6.639A24.155,24.155,0,0,0,58.788,9.05a25.9,25.9,0,0,1-6.043,6.229Z" transform="translate(0 -3.381)" fill="#ecc703"/>
</svg>
