<svg xmlns="http://www.w3.org/2000/svg" width="40.257" height="32.693" viewBox="0 0 40.257 32.693">
  <path id="Icon_awesome-twitter" data-name="Icon awesome-twitter" d="M36.118,11.528c.026.358.026.715.026,1.073,0,10.906-8.3,23.472-23.474,23.472A23.317,23.317,0,0,1,0,32.37a17.069,17.069,0,0,0,1.992.1,16.524,16.524,0,0,0,10.243-3.525,8.265,8.265,0,0,1-7.714-5.721,10.405,10.405,0,0,0,1.558.128,8.727,8.727,0,0,0,2.171-.281,8.251,8.251,0,0,1-6.616-8.1v-.1a8.31,8.31,0,0,0,3.729,1.047A8.262,8.262,0,0,1,2.81,4.888a23.453,23.453,0,0,0,17.012,8.633,9.312,9.312,0,0,1-.2-1.89A8.259,8.259,0,0,1,33.9,5.986a16.245,16.245,0,0,0,5.236-1.992A8.228,8.228,0,0,1,35.505,8.54a16.541,16.541,0,0,0,4.751-1.277,17.734,17.734,0,0,1-4.138,4.265Z" transform="translate(0 -3.381)" fill="#54c6fa"/>
</svg>
