<svg id="Group_7499" data-name="Group 7499" xmlns="http://www.w3.org/2000/svg" width="45.535" height="32.08" viewBox="0 0 45.535 32.08">
  <path id="Path_7558" data-name="Path 7558" d="M1180.893,4787.649a5.724,5.724,0,0,0-4.026-4.052c-3.553-.957-17.79-.957-17.79-.957s-14.24,0-17.79.957a5.72,5.72,0,0,0-4.026,4.052c-.952,3.574-.952,11.031-.952,11.031s0,7.455.952,11.03a5.716,5.716,0,0,0,4.026,4.051c3.55.958,17.79.958,17.79.958s14.237,0,17.79-.958a5.72,5.72,0,0,0,4.026-4.051c.952-3.575.952-11.03.952-11.03S1181.845,4791.224,1180.893,4787.649Zm-26.473,17.8V4791.91l11.9,6.771Z" transform="translate(-1136.31 -4782.64)" fill="#f8ef80"/>
</svg>
