<svg xmlns="http://www.w3.org/2000/svg" width="66.497" height="46.848" viewBox="0 0 66.497 46.848">
  <g id="Group_7170" data-name="Group 7170" transform="translate(0 0)">
    <path id="Path_7558" data-name="Path 7558" d="M1201.417,4789.956a8.359,8.359,0,0,0-5.879-5.917c-5.188-1.4-25.979-1.4-25.979-1.4s-20.8,0-25.979,1.4a8.353,8.353,0,0,0-5.879,5.917c-1.39,5.219-1.39,16.109-1.39,16.109s0,10.887,1.39,16.107a8.348,8.348,0,0,0,5.879,5.916c5.184,1.4,25.979,1.4,25.979,1.4s20.791,0,25.979-1.4a8.354,8.354,0,0,0,5.879-5.916c1.39-5.221,1.39-16.107,1.39-16.107S1202.807,4795.175,1201.417,4789.956Zm-38.659,26v-19.773l17.38,9.888Z" transform="translate(-1136.31 -4782.64)" fill="#ecc703"/>
  </g>
</svg>
