<svg xmlns="http://www.w3.org/2000/svg" width="28.834" height="18.836" viewBox="0 0 28.834 18.836">
  <g id="Group_7501" data-name="Group 7501" transform="translate(378.509 -47.504)">
    <path id="Path_7619" data-name="Path 7619" d="M-341.448,55.429l-7.335-7.322q-.027-.028-.054-.054a1.964,1.964,0,0,0-2.777.054,1.964,1.964,0,0,0,.054,2.777l4.038,4.038h-19.987a2,2,0,0,0-2,2,2,2,0,0,0,2,2H-347.5l-4.064,4.065-.015.015a1.953,1.953,0,0,0,.015,2.762l.005,0a1.96,1.96,0,0,0,2.772,0l7.336-7.335a1.85,1.85,0,0,0,.432-.433A1.84,1.84,0,0,0-341.448,55.429Z" transform="translate(-9)" fill="#fff"/>
  </g>
</svg>
