<svg xmlns="http://www.w3.org/2000/svg" width="24.939" height="16.292" viewBox="0 0 24.939 16.292">
  <g id="Group_7495" data-name="Group 7495" transform="translate(-7.903 -8.724)">
    <path id="Path_7619" data-name="Path 7619" d="M-345.239,54.358l-6.344-6.333-.047-.047a1.7,1.7,0,0,0-2.4.047,1.7,1.7,0,0,0,.047,2.4l3.493,3.493h-17.287a1.73,1.73,0,0,0-1.73,1.73,1.729,1.729,0,0,0,1.73,1.73h17.309l-3.515,3.516-.013.013a1.689,1.689,0,0,0,.013,2.389l0,0a1.7,1.7,0,0,0,2.4,0l6.345-6.344a1.6,1.6,0,0,0,.374-.375A1.592,1.592,0,0,0-345.239,54.358Z" transform="translate(377.412 -38.781)" fill="#338287"/>
  </g>
</svg>
